<?xml version="1.0" standalone="no"?>
<!DOCTYPE svg PUBLIC "-//W3C//DTD SVG 20010904//EN"
 "http://www.w3.org/TR/2001/REC-SVG-20010904/DTD/svg10.dtd">
<svg version="1.0" xmlns="http://www.w3.org/2000/svg"
 width="200.000000pt" height="200.000000pt" viewBox="0 0 200.000000 200.000000"
 preserveAspectRatio="xMidYMid meet">
<metadata>
Created by potrace 1.11, written by Peter Selinger 2001-2013
</metadata>
<g transform="translate(0.000000,200.000000) scale(0.100000,-0.100000)"
fill="#000000" stroke="none">
<path d="M117 1702 c-16 -3 -17 -56 -17 -702 0 -656 1 -698 18 -701 9 -3 413
-4 897 -4 l880 1 3 702 2 702 -177 1 c-787 3 -1592 3 -1606 1z m1761 -703 l2
-686 -880 0 -880 -1 0 683 c0 375 2 684 5 686 2 3 397 5 877 4 l873 0 3 -686z"/>
<path d="M456 1488 c-8 -26 -39 -115 -72 -211 -19 -54 -34 -116 -34 -137 0
-54 27 -107 61 -119 28 -9 39 -9 114 10 22 6 78 11 124 13 58 1 86 6 89 15 3
8 9 4 16 -11 6 -12 20 -24 29 -26 21 -4 57 24 57 45 0 8 7 28 17 46 16 32 16
32 26 9 10 -21 14 -22 69 -16 51 6 58 5 52 -10 -3 -9 -12 -16 -20 -16 -21 0
-17 -14 11 -44 23 -25 26 -26 53 -12 33 17 50 50 45 87 -2 17 5 33 22 49 l25
23 0 -25 c0 -34 38 -88 78 -111 21 -12 59 -21 110 -24 72 -5 78 -4 100 19 22
24 22 26 5 47 -14 17 -31 22 -78 25 -107 7 -135 15 -135 41 0 23 65 95 86 95
6 0 17 6 23 13 6 8 30 19 53 26 78 23 98 59 55 99 -32 30 -49 28 -135 -20 -87
-48 -150 -106 -158 -148 l-6 -29 -38 20 c-32 17 -40 27 -46 62 -4 23 -9 45
-10 50 -1 4 -2 20 -3 36 -1 24 -7 31 -37 41 -34 11 -38 10 -67 -18 -18 -16
-41 -33 -53 -36 -15 -5 -38 -43 -82 -137 -47 -102 -61 -126 -67 -110 -3 12
-26 29 -51 40 -45 20 -74 21 -176 6 l-47 -7 9 33 c5 19 28 81 51 139 45 117
48 136 22 161 -25 23 -82 35 -87 17z m514 -257 c10 -36 0 -45 -44 -39 l-26 3
26 38 c29 43 31 43 44 -2z"/>
<path d="M1619 1387 c-108 -24 -117 -33 -101 -92 11 -42 10 -49 -16 -103 -28
-57 -31 -76 -18 -125 9 -38 41 -51 123 -49 146 2 219 46 163 97 -13 11 -27 15
-42 11 -13 -3 -53 -9 -90 -12 -54 -5 -68 -3 -68 7 1 32 27 49 73 49 52 0 86
11 111 35 15 16 15 18 -11 38 -19 15 -42 22 -72 22 -76 0 -58 21 38 45 49 12
97 30 105 39 14 15 14 19 0 40 -19 27 -69 27 -195 -2z"/>
<path d="M231 977 c-6 -8 -8 -17 -4 -20 3 -4 336 -7 739 -7 723 0 778 2 733
31 -8 5 -339 9 -735 9 -592 0 -724 -2 -733 -13z"/>
<path d="M1452 907 c-7 -8 -9 -17 -6 -20 3 -3 2 -12 -2 -19 -5 -7 -10 -24 -12
-38 -7 -60 -37 -125 -76 -165 -35 -37 -89 -66 -101 -54 -9 10 -12 72 -4 106 9
40 -3 97 -27 120 -7 7 -14 18 -17 25 -10 28 -36 -18 -46 -82 -13 -80 -14 -197
-2 -204 5 -3 12 -22 15 -41 13 -70 93 -85 172 -32 72 50 152 169 165 247 13
83 -29 194 -59 157z"/>
<path d="M1613 810 c-17 -17 -34 -43 -38 -58 -3 -15 -16 -37 -28 -50 -14 -15
-21 -34 -20 -60 1 -35 1 -57 0 -140 0 -37 15 -52 44 -45 19 5 39 57 39 100 0
17 9 23 53 33 133 32 172 87 131 188 -17 45 -47 62 -108 62 -34 0 -48 -6 -73
-30z m117 -80 c15 -9 -4 -20 -73 -41 -26 -7 -27 -6 -21 14 4 12 12 25 18 29
15 11 58 10 76 -2z"/>
</g>
</svg>
